# AST/ASF file generated using VICON BodyLanguage
# -----------------------------------------------
:version 1.10
:name VICON
:units
  mass 1.0
  length 0.45
  angle deg
:documentation
   .ast/.asf automatically generated from VICON data using
   VICON BodyBuilder and BodyLanguage model FoxedUp or BRILLIANT.MOD
:root
   order TX TY TZ RX RY RZ
   axis XYZ
   position 0 0 0  
   orientation 0 0 0 
:bonedata
  begin
     id 1 
     name lhipjoint
     direction 0.756833 -0.6125 0.228138 
     length 2.53827 
     axis 0 0 0  XYZ
  end
  begin
     id 2 
     name lfemur
     direction 0.34202 -0.939693 0  
     length 6.51821  
     axis 0 0 20  XYZ
    dof rx ry rz
    limits (-160.0 20.0)
           (-70.0 70.0)
           (-60.0 70.0)
  end
  begin
     id 3 
     name ltibia
     direction 0.34202 -0.939693 0   
     length 6.99902   
     axis 0 0 20   XYZ
    dof rx
    limits (-10.0 170.0)
  end
  begin
     id 4 
     name lfoot
     direction 0.0951515 -0.261427 0.960522   
     length 1.92102   
     axis -90 7.62852e-016 20   XYZ
    dof rx rz
    limits (-45.0 90.0)
           (-70.0 20.0)
  end
  begin
     id 5 
     name ltoes
     direction 1.53539e-011 -4.21781e-011 1   
     length 0.964376   
     axis -90 7.62852e-016 20   XYZ
    dof rx
    limits (-90.0 20.0)
  end
  begin
     id 6 
     name rhipjoint
     direction -0.752153 -0.617542 0.230017   
     length 2.51754  
     axis 0 0 0  XYZ 
  end
  begin
     id 7 
     name rfemur
     direction -0.34202 -0.939693 0   
     length 6.82377   
     axis 0 0 -20   XYZ
    dof rx ry rz
    limits (-160.0 20.0)
           (-70.0 70.0)
           (-70.0 60.0)
  end
  begin
     id 8 
     name rtibia
     direction -0.34202 -0.939693 0   
     length 6.98689   
     axis 0 0 -20   XYZ
    dof rx
    limits (-10.0 170.0)
 end
 begin
     id 9 
     name rfoot
     direction -0.0900426 -0.24739 0.964723   
     length 2.03215  
     axis -90 -7.62852e-016 -20   XYZ
    dof rx rz
    limits (-45.0 90.0)
           (-20.0 70.0)
  end
  begin
     id 10 
     name rtoes
     direction -1.53466e-011 -4.22206e-011 1   
     length 1.0197   
     axis -90 -7.62852e-016 -20   XYZ
    dof rx
    limits (-90.0 20.0)
  end
  begin
     id 11 
     name lowerback
     direction 0.0184183 0.995705 -0.0907278   
     length 2.019   
     axis 0 0 0   XYZ
    dof rx ry rz
    limits (-20.0 45.0)
           (-30.0 30.0)
           (-30.0 30.0)
  end
  begin
     id 12 
     name upperback
     direction 0.00281055 0.998777 0.0493607   
     length 1.99623   
     axis 0 0 0   XYZ
    dof rx ry rz
    limits (-20.0 45.0)
           (-30.0 30.0)
           (-30.0 30.0)
  end
  begin
     id 13 
     name thorax
     direction -0.00665507 0.995706 0.092331   
     length 2.02811   
     axis 0 0 0   XYZ
    dof rx ry rz
    limits (-20.0 45.0)
           (-30.0 30.0)
           (-30.0 30.0)
  end
  begin
     id 14 
     name lowerneck
     direction -0.0960965 0.994358 0.0449225   
     length 1.71265   
     axis 0 0 0   XYZ
    dof rx ry rz
    limits (-20.0 45.0)
           (-30.0 30.0)
           (-30.0 30.0)
  end
  begin
     id 15 
     name upperneck
     direction 0.13642 0.985357 -0.102278   
     length 1.73016   
     axis 0 0 0   XYZ
    dof rx ry rz
    limits (-20.0 45.0)
           (-30.0 30.0)
           (-30.0 30.0)
  end
  begin
     id 16
     name head
     direction 0.0556079 0.997632 -0.040479  
     length 1.74275  
     axis 0 0 0   XYZ
    dof rx ry rz
    limits (-20.0 45.0)
           (-30.0 30.0)
           (-30.0 30.0)
  end
  begin
     id 17 
     name lclavicle
     direction 0.90877 0.417247 -0.00652364  
     length 3.25514  
     axis 0 0 0   XYZ
    dof ry rz
    limits (-20.0 10.0)
           (0.0 20.0)
  end
  begin
     id 18 
     name lhumerus
     direction 1 -4.48949e-011 8.31417e-028   
     length 4.84834   
     axis 180 -30 -90   XYZ
    dof rx ry rz
    limits (-60.0 90.0)
           (-90.0 90.0)
           (-90.0 90.0)
  end
  begin
     id 19
     name lradius
     direction 1 -4.48984e-011 3.45616e-027   
     length 2.99713   
     axis 180 -30 -90   XYZ
    dof rx
    limits (-10.0 170.0)
  end
  begin
     id 20
     name lwrist
     direction 1 -4.4891e-011 4.0479e-027   
     length 1.49857   
     axis -1.61768e-015 90 90   XYZ
    dof ry
    limits (-180.0 0.0)
 end
  begin
     id 21 
     name lhand
     direction 1 -4.49025e-011 8.0958e-027   
     length 0.693987   
     axis -5.16581e-015 90 90   XYZ
    dof rx rz
    limits (-90.0 90.0)
           (-45.0 45.0)
  end
  begin
     id 22 
     name lfingers
     direction 1 -4.4888e-011 1.61916e-026   
     length 0.55951   
     axis -1.03316e-014 90 90   XYZ
    dof rx
    limits (0.0 90.0)
  end
  begin
     id 23
     name lthumb
     direction 0.707107 -6.3493e-011 0.707107   
     length 0.803348   
     axis -90 45 2.85299e-015   XYZ
    dof rx rz
    limits (-45.0 45.0)
           (-45.0 45.0)
  end
  begin
     id 24 
     name rclavicle
     direction -0.906655 0.41906 0.0486307   
     length 3.3311  
     axis 0 0 0   XYZ 
    dof ry rz
    limits (-10.0 20.0)
           (-20.0 0.0)
  end
  begin
     id 25 
     name rhumerus
     direction -1 -4.48959e-011 6.37764e-018  
     length 4.93457   
     axis 180 30 90   XYZ
    dof rx ry rz
    limits (-90.0 60.0)
           (-90.0 90.0)
           (-90.0 90.0)
  end
  begin
     id 26 
     name rradius
     direction -1 -4.48957e-011 2.20847e-027   
     length 3.3443   
     axis 180 30 90   XYZ
    dof rx
    limits (-10.0 170.0)
  end
  begin
     id 27 
     name rwrist
     direction -1 -4.49008e-011 4.0479e-027   
     length 1.67215   
     axis -1.61768e-015 -90 -90   XYZ
    dof ry
    limits (-180.0 0.0)
  end
  begin
     id 28
     name rhand
     direction -1 -4.49013e-011 8.0958e-027   
     length 0.677363   
     axis -5.16581e-015 -90 -90   XYZ
    dof rx rz
    limits (-90.0 90.0)
           (-45.0 45.0)
  end
  begin
     id 29
     name rfingers
     direction -1 -4.48832e-011 1.61916e-026   
     length 0.546107   
     axis -1.03316e-014 -90 -90   XYZ
    dof rx
    limits (0.0 90.0)
  end
  begin
     id 30
     name rthumb
     direction -0.707107 -6.34895e-011 0.707107   
     length 0.784104   
     axis -90 -45 -2.85299e-015   XYZ
    dof rx rz
    limits (-45.0 45.0)
           (-45.0 45.0)
  end
:hierarchy
  begin
    root lhipjoint rhipjoint lowerback
    lhipjoint lfemur
    lfemur ltibia
    ltibia lfoot
    lfoot ltoes
    rhipjoint rfemur
    rfemur rtibia
    rtibia rfoot
    rfoot rtoes
    lowerback upperback
    upperback thorax
    thorax lowerneck lclavicle rclavicle
    lowerneck upperneck
    upperneck head
    lclavicle lhumerus
    lhumerus lradius
    lradius lwrist
    lwrist lhand lthumb
    lhand lfingers
    rclavicle rhumerus
    rhumerus rradius
    rradius rwrist
    rwrist rhand rthumb
    rhand rfingers
  end

#!OML:ASF H:\Terrain\Patient Classification 1\junglegym\FridayTest\junglegym.ASF
:FULLY-SPECIFIED
:DEGREES
622
root -19.8876 21.129 -0.236693 101.125 -78.6517 -169.71
lowerback 16.9769 -0.203759 6.31282
upperback 3.71186 0.734545 1.83975
thorax -5.46507 0.186779 -1.76557
lowerneck 13.576 -0.170489 -10.8299
upperneck 32.6344 -5.59269 6.29308
head 8.60946 -4.85921 3.73381
rclavicle -3.18055e-015 1.70458e-014
rhumerus 83.9739 -23.0143 -56.301
rradius 53.5686
rwrist -2.20467
rhand -1.92604 10.7246
rfingers 7.12502
rthumb 23.7443 -17.8285
lclavicle -3.18055e-015 1.70458e-014
lhumerus 84.786 21.4261 48.8823
lradius 56.0827
lwrist -18.1442
lhand 9.50911 30.752
lfingers 7.12502
lthumb 34.6606 57.3867
rfemur -39.2332 20.0677 24.4712
rtibia 33.8721
rfoot -4.4294 -11.7652
rtoes 22.1435
lfemur -43.3746 -12.5342 -11.8803
ltibia 33.993
lfoot -3.55648 12.52
ltoes -32.851
623
root -19.8114 21.0748 -0.245647 101.671 -79.6159 -169.825
lowerback 16.2416 -0.0696303 5.45902
upperback 3.69783 0.710027 1.53691
thorax -5.09638 0.202525 -1.59789
lowerneck 12.9898 -0.238041 -11.5284
upperneck 32.881 -5.79635 6.78466
head 8.84441 -4.99193 4.01469
rclavicle -9.0447e-015 -1.93815e-015
rhumerus 83.7613 -22.9321 -55.9977
rradius 52.7906
rwrist -2.29241
rhand -2.54844 10.8164
rfingers 7.12502
rthumb 23.1473 -17.813
lclavicle -9.0447e-015 -1.93815e-015
lhumerus 85.1626 20.4505 49.9287
lradius 55.3065
lwrist -19.1367
lhand 9.15831 30.2778
lfingers 7.12502
lthumb 34.3276 56.9882
rfemur -40.011 19.9524 23.1321
rtibia 33.9949
rfoot -4.47961 -11.639
rtoes 23.5772
lfemur -43.7407 -12.4936 -12.9368
ltibia 33.6727
lfoot -3.46194 12.4762
ltoes -32.696
624
root -19.7323 21.0055 -0.247261 101.883 -79.5229 -169.979
lowerback 16.292 -0.149639 5.26356
upperback 3.63889 0.58148 1.62596
thorax -5.19897 0.137858 -1.36745
lowerneck 12.2162 -0.183101 -12.0912
upperneck 33.4489 -5.73676 6.90886
head 9.19806 -5.02697 4.14848
rclavicle 2.82026e-014 -2.1916e-014
rhumerus 83.5266 -22.1941 -56.2388
rradius 52.941
rwrist -2.28145
rhand -2.53302 10.4846
rfingers 7.12502
rthumb 23.1621 -18.1429
lclavicle 2.82026e-014 -2.1916e-014
lhumerus 82.9253 20.6791 49.3441
lradius 56.2969
lwrist -19.1897
lhand 8.62437 30.2217
lfingers 7.12502
lthumb 33.8205 57.0451
rfemur -40.2562 19.8912 22.9992
rtibia 33.7753
rfoot -5.41108 -11.5419
rtoes 29.8745
lfemur -44.0338 -12.8629 -12.5847
ltibia 33.755
lfoot -4.99762 11.7456
ltoes -23.4191
625
root -19.6441 20.9185 -0.251522 103.062 -79.5918 -171.16
lowerback 16.532 -0.205639 4.82851
upperback 3.6094 0.447448 1.61756
thorax -5.37344 0.0717761 -1.10389
lowerneck 11.6047 -0.0397452 -12.6318
upperneck 33.7799 -5.5364 7.06953
head 9.42171 -4.98102 4.30319
rclavicle 2.67862e-014 -4.22169e-014
rhumerus 83.8685 -21.0262 -57.5734
rradius 52.8475
rwrist -1.28005
rhand -2.33505 11.0628
rfingers 7.12502
rthumb 23.352 -17.5407
lclavicle 2.67862e-014 -4.22169e-014
lhumerus 84.1696 20.1863 49.4526
lradius 54.1226
lwrist -20.3268
lhand 8.15421 29.9079
lfingers 7.12502
lthumb 33.3736 56.8285
rfemur -40.6807 19.0364 23.2463
rtibia 34.1305
rfoot -4.91018 -11.1051
rtoes 27.7526
lfemur -44.0195 -13.5482 -12.2399
ltibia 33.3025
lfoot -4.1638 14.0817
ltoes -23.4522
626
root -19.5586 20.8306 -0.278305 101.898 -78.5871 -170.435
lowerback 17.0797 -0.309192 5.38855
upperback 3.73788 0.437153 1.9534
thorax -5.52748 0.048387 -1.06041
lowerneck 11.1821 0.102389 -13.3392
upperneck 33.9465 -5.39735 7.41999
head 9.56696 -4.9672 4.5592
rclavicle -7.85199e-015 -1.96797e-014
rhumerus 84.2382 -20.1509 -58.5066
rradius 52.1243
rwrist -0.39503
rhand -2.70518 11.9014
rfingers 7.12502
rthumb 22.9969 -16.7468
lclavicle -7.85199e-015 -1.96797e-014
lhumerus 84.3776 19.7777 49.6871
lradius 53.1553
lwrist -20.9909
lhand 7.7315 29.3839
lfingers 7.12502
lthumb 32.9717 56.39
rfemur -40.2051 18.1496 24.9867
rtibia 34.1668
rfoot -3.69986 -10.4897
rtoes 21.1947
lfemur -43.7064 -13.4558 -11.1832
ltibia 33.1918
lfoot -3.19887 14.6237
ltoes -28.1069
